<?xml version="1.0" encoding="UTF-8"?>
<!DOCTYPE svg PUBLIC "-//W3C//DTD SVG 1.1//EN" "http://www.w3.org/Graphics/SVG/1.1/DTD/svg11.dtd">
<!-- Creator: CorelDRAW -->
<svg xmlns="http://www.w3.org/2000/svg" xml:space="preserve" width="141.646mm" height="29.1313mm" version="1.1" style="shape-rendering:geometricPrecision; text-rendering:geometricPrecision; image-rendering:optimizeQuality; fill-rule:evenodd; clip-rule:evenodd"
viewBox="0 0 13209.71 2716.74"
 xmlns:xlink="http://www.w3.org/1999/xlink"
 xmlns:xodm="http://www.corel.com/coreldraw/odm/2003">
 <defs>
  <style type="text/css">
   <![CDATA[
    .fil6 {fill:white}
    .fil1 {fill:#1495CC}
    .fil2 {fill:#3E9BC2}
    .fil0 {fill:#6BD5FF}
    .fil7 {fill:#005096;fill-rule:nonzero}
    .fil5 {fill:#BDF5FF;fill-rule:nonzero}
    .fil3 {fill:url(#id8)}
    .fil4 {fill:url(#id9)}
   ]]>
  </style>
   <mask id="id0">
  <linearGradient id="id1" gradientUnits="userSpaceOnUse" x1="1436.67" y1="660.84" x2="1939.32" y2="2106.96">
   <stop offset="0" style="stop-opacity:1; stop-color:white"/>
   <stop offset="1" style="stop-opacity:0; stop-color:white"/>
  </linearGradient>
    <rect style="fill:url(#id1)" x="288.68" y="775.14" width="2593.21" height="1361.64"/>
   </mask>
   <mask id="id2">
  <linearGradient id="id3" gradientUnits="userSpaceOnUse" x1="1073.92" y1="840" x2="1073.95" y2="469.63">
   <stop offset="0" style="stop-opacity:1; stop-color:white"/>
   <stop offset="1" style="stop-opacity:0; stop-color:white"/>
  </linearGradient>
    <rect style="fill:url(#id3)" x="803.52" y="410.8" width="571.38" height="746.17"/>
   </mask>
   <mask id="id4">
  <linearGradient id="id5" gradientUnits="userSpaceOnUse" x1="1760.63" y1="1493.42" x2="2048.74" y2="2883.87">
   <stop offset="0" style="stop-opacity:1; stop-color:white"/>
   <stop offset="1" style="stop-opacity:0; stop-color:white"/>
  </linearGradient>
    <rect style="fill:url(#id5)" x="900.01" y="1204.44" width="1854.24" height="952.16"/>
   </mask>
   <mask id="id6">
  <linearGradient id="id7" gradientUnits="userSpaceOnUse" x1="1099.12" y1="623.97" x2="1099.15" y2="931.43">
   <stop offset="0" style="stop-opacity:1; stop-color:white"/>
   <stop offset="1" style="stop-opacity:0; stop-color:white"/>
  </linearGradient>
    <rect style="fill:url(#id7)" x="960.05" y="410.47" width="571.38" height="638.1"/>
   </mask>
  <linearGradient id="id8" gradientUnits="userSpaceOnUse" x1="1685.94" y1="1056.85" x2="1949.3" y2="2712.39">
   <stop offset="0" style="stop-opacity:1; stop-color:#005096"/>
   <stop offset="1" style="stop-opacity:1; stop-color:#6BD5FF"/>
  </linearGradient>
  <linearGradient id="id9" gradientUnits="userSpaceOnUse" x1="1450.33" y1="1385.58" x2="2558.58" y2="2437.48">
   <stop offset="0" style="stop-opacity:1; stop-color:#005096"/>
   <stop offset="1" style="stop-opacity:1; stop-color:#0781EB"/>
  </linearGradient>
 </defs>
 <g id="Layer_x0020_1">
  <metadata id="CorelCorpID_0Corel-Layer"/>
  <path class="fil0" d="M2683.54 917.89c-498.61,-556.17 -1452.63,-642.42 -2127.09,-321.4 -373.8,177.92 -673.9,604.88 -511.12,985.79 304.45,712.46 1857.25,693.84 2517.14,314.89 386.92,-222.2 415.62,-650.69 121.07,-979.28z"/>
  <path class="fil1" style="mask:url(#id0)" d="M1530.84 776.53c-532.23,-10.86 -1521.69,325.42 -1166.87,1036.88 5.41,11.35 11.23,22.65 17.5,33.94l1.38 2.45 1.38 2.44 1.39 2.44 2.83 4.87 2.85 4.83 1.45 2.42 1.45 2.41 1.46 2.4 1.47 2.39 1.48 2.39 1.49 2.38 1.51 2.37 1.5 2.36 1.52 2.37 3.08 4.69 1.56 2.34 3.12 4.66 1.59 2.32 1.59 2.31 1.59 2.3 1.61 2.3 3.25 4.59 1.63 2.28 1.64 2.28 1.66 2.28 1.67 2.26 1.67 2.26 1.68 2.26 1.7 2.25 1.71 2.24 1.71 2.24 1.73 2.23 1.73 2.22 1.74 2.21 1.74 2.21 1.76 2.21 1.76 2.19 3.55 4.37 3.6 4.35 1.81 2.17 1.82 2.15 1.83 2.15 1.84 2.15 1.85 2.14 1.86 2.14 1.87 2.13 1.87 2.12 1.88 2.12 3.79 4.22 1.91 2.11 1.91 2.09 1.93 2.09 1.93 2.08 1.94 2.08 1.95 2.06 1.96 2.06c9.33,4.22 18.76,8.34 28.29,12.39 9.52,4.04 19.14,7.99 28.84,11.87 9.7,3.87 19.48,7.66 29.38,11.37 9.87,3.7 19.82,7.32 29.87,10.86 10.03,3.53 20.16,6.99 30.36,10.36 10.19,3.37 20.47,6.64 30.83,9.86 10.34,3.2 20.77,6.32 31.28,9.36 10.49,3.04 21.06,6 31.7,8.88 10.63,2.88 21.33,5.66 32.11,8.38 10.77,2.71 21.6,5.34 32.5,7.9 10.89,2.56 21.83,5.03 32.86,7.42 11,2.4 22.07,4.7 33.2,6.95 11.13,2.23 22.29,4.39 33.54,6.46 11.23,2.07 22.5,4.08 33.83,6 11.33,1.93 22.7,3.77 34.12,5.54 11.41,1.76 22.89,3.45 34.39,5.06 11.5,1.61 23.04,3.14 34.64,4.62 4.02,0.5 8.05,1.01 12.09,1.49 -87.57,-109.12 -142.47,-224.53 -142.47,-338.49 0,-327.84 416.12,-593.61 929.42,-593.61 481.95,0 878.21,234.28 924.81,534.3 6.57,-7.94 12.87,-15.98 18.92,-24.12l0.48 -0.66c77.54,-104.56 112.89,-225.52 107.46,-349.95 -267.44,-432.82 -822.58,-604.64 -1350.27,-587.47z"/>
  <path class="fil2" style="mask:url(#id2)" d="M1374.91 410.8l0 580.86c0,31.43 -25.49,56.91 -56.91,56.91 -31.43,0 -56.91,-25.48 -56.91,-56.91l0 -575.78c37.86,-2.7 75.82,-4.4 113.81,-5.08zm-457.56 58.55c-38.39,9.36 -76.35,19.85 -113.82,31.37l0 637.17c0,6.7 1.16,13.12 3.28,19.08 14.32,-15.09 38.25,-24.97 65.37,-24.97 16.71,0 32.21,3.75 45.01,10.17 0.1,-1.41 0.16,-2.84 0.16,-4.27l0 -668.54z"/>
  <path class="fil3" d="M1829.43 1204.44c513.3,0 929.42,265.77 929.42,593.61 0,252.15 -246.17,467.59 -593.38,553.59 -219.86,54.46 -236.36,147.98 -153.09,305.75 11.69,19.03 12.52,75.26 -63.08,55 -393.59,-109.46 -1049.29,-520.49 -1049.29,-914.34 0,-327.84 416.12,-593.61 929.42,-593.61z"/>
  <path class="fil4" style="mask:url(#id4)" d="M1042.53 2136.56c541.57,65.59 1162.05,-33.86 1519.93,-239.38 78.62,-45.15 142.44,-98.82 191.78,-158.43 -46.59,-299.99 -442.85,-534.3 -924.81,-534.3 -513.3,0 -929.42,265.77 -929.42,593.61 0,113.97 54.95,229.38 142.53,338.51z"/>
  <path class="fil5" d="M952.82 1099.16c33.34,0 63.95,6.21 86.46,16.25 27.09,12.09 43.88,30.5 43.88,52.37 0,21.87 -16.79,40.29 -43.88,52.37 -22.51,10.03 -53.12,16.25 -86.46,16.25 -33.33,0 -63.94,-6.21 -86.46,-16.25 -27.09,-12.09 -43.87,-30.5 -43.87,-52.37 0,-21.87 16.78,-40.29 43.87,-52.37 22.52,-10.03 53.13,-16.25 86.46,-16.25zm71.04 50.77c-17.78,-7.93 -42.87,-12.83 -71.04,-12.83 -28.16,0 -53.26,4.91 -71.04,12.83 -13.18,5.88 -21.35,12.3 -21.35,17.85 0,5.56 8.17,11.97 21.35,17.85 17.78,7.93 42.88,12.83 71.04,12.83 28.17,0 53.26,-4.91 71.04,-12.83 13.19,-5.88 21.36,-12.29 21.36,-17.85 0,-5.55 -8.17,-11.97 -21.36,-17.85z"/>
  <path class="fil5" d="M952.82 1099.16c56.5,0 108.03,9.96 145.64,26.05 42.52,18.18 68.82,45.14 68.82,76.53 0,31.41 -26.3,58.36 -68.82,76.55 -37.61,16.08 -89.15,26.05 -145.64,26.05 -56.49,0 -108.02,-9.97 -145.63,-26.05 -42.53,-18.19 -68.82,-45.14 -68.82,-76.55 0,-31.39 26.3,-58.35 68.82,-76.53 37.61,-16.09 89.15,-26.05 145.63,-26.05zm130.81 60.87c-33.12,-14.16 -79.35,-22.93 -130.81,-22.93 -51.46,0 -97.69,8.78 -130.81,22.93 -28.23,12.08 -45.7,26.94 -45.7,41.71 0,14.78 17.47,29.65 45.7,41.72 33.13,14.16 79.35,22.93 130.81,22.93 51.46,0 97.7,-8.78 130.81,-22.93 28.24,-12.08 45.71,-26.94 45.71,-41.72 0,-14.76 -17.47,-29.63 -45.71,-41.71z"/>
  <path class="fil5" d="M1410.38 958.56c33.33,0 63.94,6.22 86.46,16.25 27.09,12.09 43.87,30.5 43.87,52.38 0,21.87 -16.78,40.29 -43.87,52.37 -22.52,10.03 -53.13,16.25 -86.46,16.25 -33.34,0 -63.94,-6.22 -86.46,-16.25 -27.09,-12.09 -43.88,-30.5 -43.88,-52.37 0,-21.88 16.79,-40.3 43.88,-52.38 22.52,-10.03 53.12,-16.25 86.46,-16.25zm71.04 50.78c-17.78,-7.93 -42.88,-12.84 -71.04,-12.84 -28.16,0 -53.26,4.91 -71.04,12.84 -13.19,5.88 -21.36,12.3 -21.36,17.85 0,5.55 8.17,11.97 21.36,17.85 17.78,7.92 42.88,12.83 71.04,12.83 28.16,0 53.26,-4.91 71.04,-12.83 13.19,-5.88 21.35,-12.3 21.35,-17.85 0,-5.55 -8.16,-11.97 -21.35,-17.85z"/>
  <path class="fil5" d="M1410.38 958.56c56.49,0 108.02,9.97 145.64,26.05 42.51,18.19 68.82,45.15 68.82,76.54 0,31.4 -26.3,58.36 -68.82,76.55 -37.62,16.08 -89.15,26.05 -145.64,26.05 -56.5,0 -108.02,-9.97 -145.64,-26.05 -42.52,-18.19 -68.82,-45.15 -68.82,-76.55 0,-31.39 26.31,-58.35 68.82,-76.54 37.62,-16.08 89.15,-26.05 145.64,-26.05zm130.81 60.88c-33.13,-14.17 -79.35,-22.94 -130.81,-22.94 -51.46,0 -97.7,8.78 -130.81,22.94 -28.23,12.07 -45.71,26.94 -45.71,41.71 0,14.77 17.48,29.65 45.71,41.71 33.12,14.17 79.35,22.94 130.81,22.94 51.46,0 97.69,-8.78 130.81,-22.94 28.23,-12.07 45.71,-26.94 45.71,-41.71 0,-14.76 -17.48,-29.64 -45.71,-41.71z"/>
  <path class="fil6" style="mask:url(#id6)" d="M1073.86 437.68l0 553.99c0,31.41 -25.49,56.9 -56.9,56.9 -31.44,0 -56.92,-25.49 -56.92,-56.9l0 -532.28c37.62,-8.3 75.59,-15.51 113.81,-21.71zm457.57 -23.89c-37.88,-2.14 -75.85,-3.23 -113.82,-3.32l0 581.2c0,31.41 25.48,56.9 56.92,56.9 31.42,0 56.91,-25.49 56.91,-56.9l0 -577.88z"/>
  <path class="fil7" d="M1009.73 823.41l343.75 -58.68 0 -100.93 -343.75 58.69 0 100.92zm343.75 56.61l-343.75 58.69 0 199.18c0,31.43 -25.47,56.9 -56.91,56.9 -31.43,0 -56.92,-25.47 -56.92,-56.9l0 -781.53c0,-26.41 -10.85,-50.5 -28.33,-67.98 -17.48,-17.49 -41.57,-28.33 -67.96,-28.33 -26.44,0 -50.52,10.85 -68,28.33 -17.48,17.48 -28.34,41.57 -28.34,67.98 0,31.44 -25.47,56.92 -56.92,56.92 -31.41,0 -56.89,-25.48 -56.89,-56.92 0,-57.83 23.63,-110.39 61.67,-148.45 38.08,-38.05 90.62,-61.68 148.45,-61.68 57.85,0 110.41,23.63 148.46,61.68 38.05,38.06 61.69,90.62 61.69,148.45l0 34.63 343.75 -58.69 0 -122.17c0,-26.42 -10.85,-50.52 -28.33,-67.98 -17.49,-17.49 -41.57,-28.33 -67.99,-28.33 -26.43,0 -50.51,10.85 -68,28.33 -17.46,17.46 -28.32,41.56 -28.32,67.98 0,31.44 -25.47,56.91 -56.89,56.91 -31.44,0 -56.92,-25.47 -56.92,-56.91 0,-57.85 23.64,-110.4 61.69,-148.45 38.05,-38.06 90.6,-61.67 148.45,-61.67 57.84,0 110.4,23.61 148.45,61.67 38.07,38.05 61.69,90.6 61.69,148.45l0 781.53c0,31.43 -25.49,56.91 -56.91,56.91 -31.43,0 -56.91,-25.48 -56.91,-56.91l0 -111.64zm0 -432.43l-343.75 58.67 0 100.96 343.75 -58.69 0 -100.94z"/>
  <path class="fil7" d="M4403.14 648.35l0 846.63 -586.83 -846.63 -261.65 0 0 1289.55 257.92 0 0 -846.61 586.83 846.61 261.64 0 0 -1289.55 -257.91 0zm8563.63 1289.55l242.95 0 0 -1345.6 -242.95 0 0 1345.6zm-613.52 22.42c291.56,0 512.09,-214.91 512.09,-499 0,-284.06 -220.53,-498.99 -512.09,-498.99 -291.53,0 -512.06,214.93 -512.06,498.99 0,284.08 220.53,499 512.06,499zm0 -235.47c-149.49,0 -261.64,-114.01 -261.64,-263.53 0,-149.49 112.14,-263.5 261.64,-263.5 151.39,0 261.66,114.01 261.66,263.5 0,149.52 -110.28,263.53 -261.66,263.53zm-1110.45 235.47c291.56,0 512.09,-214.91 512.09,-499 0,-284.06 -220.53,-498.99 -512.09,-498.99 -291.53,0 -512.06,214.93 -512.06,498.99 0,284.08 220.53,499 512.06,499zm0 -235.47c-149.5,0 -261.64,-114.01 -261.64,-263.53 0,-149.49 112.13,-263.5 261.64,-263.5 151.39,0 261.66,114.01 261.66,263.5 0,149.52 -110.28,263.53 -261.66,263.53zm-986.36 -1076.5l-562.52 0 0 1289.55 257.92 0 0 -429.85 304.61 0c250.44,0 442.95,-185.02 442.95,-429.86 0,-244.81 -192.51,-429.85 -442.95,-429.85zm-5.6 616.75l-299.01 0 0 -373.78 299.01 0c104.66,0 183.15,80.36 183.15,186.88 0,106.53 -78.49,186.9 -183.15,186.9zm-1102.88 -302.76c-123.35,0 -228.01,44.86 -302.77,128.96l0 -106.52 -242.95 0 0 953.13 242.95 0 0 -523.3c0,-130.81 89.72,-216.78 222.42,-216.78 127.07,0 209.29,84.1 209.29,213.05l0 527.03 242.98 0 0 -605.52c0,-224.29 -147.66,-370.05 -371.91,-370.05zm-1159.24 997.99c291.56,0 512.09,-214.91 512.09,-499 0,-284.06 -220.53,-498.99 -512.09,-498.99 -291.53,0 -512.07,214.93 -512.07,498.99 0,284.08 220.54,499 512.07,499zm0 -235.47c-149.5,0 -261.64,-114.01 -261.64,-263.53 0,-149.49 112.13,-263.5 261.64,-263.5 151.39,0 261.65,114.01 261.65,263.5 0,149.52 -110.27,263.53 -261.65,263.53zm-557.17 -755.04c-112.13,0 -205.57,50.45 -274.73,138.28l0 -123.32 -242.95 0 0 953.13 242.95 0 0 -452.27c0,-162.59 100.93,-265.39 274.73,-265.39l41.12 0 0 -250.43 -41.12 0zm-1121.57 990.51c267.25,0 444.79,-158.85 444.79,-401.81l0 -573.73 -242.95 0 0 540.11c0,121.48 -80.35,199.97 -201.84,199.97 -121.49,0 -201.84,-78.5 -201.84,-199.97l0 -540.11 -242.95 0 0 573.73c0,242.97 175.66,401.81 444.79,401.81zm-542.23 -497.13c0,-287.8 -214.91,-500.85 -500.85,-500.85 -287.81,0 -506.48,213.05 -506.48,495.26 0,285.95 226.14,502.73 528.9,502.73 179.42,0 332.66,-72.87 431.71,-190.63l-162.6 -142.02c-50.45,63.53 -145.77,117.74 -261.64,117.74 -138.29,0 -239.22,-76.63 -272.86,-196.24l738.21 0c3.73,-26.15 5.6,-59.81 5.6,-85.97zm-502.72 -287.8c117.73,0 213.05,76.62 242.95,196.24l-485.92 0c29.9,-117.74 123.35,-196.24 242.98,-196.24z"/>
 </g>
</svg>
