<?xml version="1.0" encoding="UTF-8"?>
<!DOCTYPE svg PUBLIC "-//W3C//DTD SVG 1.1//EN" "http://www.w3.org/Graphics/SVG/1.1/DTD/svg11.dtd">
<!-- Creator: CorelDRAW -->
<svg xmlns="http://www.w3.org/2000/svg" xml:space="preserve" width="141.646mm" height="29.1312mm" version="1.1" style="shape-rendering:geometricPrecision; text-rendering:geometricPrecision; image-rendering:optimizeQuality; fill-rule:evenodd; clip-rule:evenodd"
viewBox="0 0 13209.71 2716.73"
 xmlns:xlink="http://www.w3.org/1999/xlink"
 xmlns:xodm="http://www.corel.com/coreldraw/odm/2003">
 <defs>
  <style type="text/css">
   <![CDATA[
    .fil6 {fill:white}
    .fil1 {fill:#1495CC}
    .fil2 {fill:#3E9BC2}
    .fil0 {fill:#6BD5FF}
    .fil7 {fill:#005096;fill-rule:nonzero}
    .fil5 {fill:#BDF5FF;fill-rule:nonzero}
    .fil8 {fill:white;fill-rule:nonzero}
    .fil3 {fill:url(#id8)}
    .fil4 {fill:url(#id9)}
   ]]>
  </style>
   <mask id="id0">
  <linearGradient id="id1" gradientUnits="userSpaceOnUse" x1="1436.67" y1="660.84" x2="1939.32" y2="2106.96">
   <stop offset="0" style="stop-opacity:1; stop-color:white"/>
   <stop offset="1" style="stop-opacity:0; stop-color:white"/>
  </linearGradient>
    <rect style="fill:url(#id1)" x="288.68" y="775.13" width="2593.21" height="1361.64"/>
   </mask>
   <mask id="id2">
  <linearGradient id="id3" gradientUnits="userSpaceOnUse" x1="1073.92" y1="840" x2="1073.95" y2="469.63">
   <stop offset="0" style="stop-opacity:1; stop-color:white"/>
   <stop offset="1" style="stop-opacity:0; stop-color:white"/>
  </linearGradient>
    <rect style="fill:url(#id3)" x="803.52" y="410.8" width="571.38" height="746.17"/>
   </mask>
   <mask id="id4">
  <linearGradient id="id5" gradientUnits="userSpaceOnUse" x1="1760.63" y1="1493.42" x2="2048.74" y2="2883.87">
   <stop offset="0" style="stop-opacity:1; stop-color:white"/>
   <stop offset="1" style="stop-opacity:0; stop-color:white"/>
  </linearGradient>
    <rect style="fill:url(#id5)" x="900.01" y="1204.44" width="1854.24" height="952.16"/>
   </mask>
   <mask id="id6">
  <linearGradient id="id7" gradientUnits="userSpaceOnUse" x1="1099.12" y1="623.96" x2="1099.15" y2="931.43">
   <stop offset="0" style="stop-opacity:1; stop-color:white"/>
   <stop offset="1" style="stop-opacity:0; stop-color:white"/>
  </linearGradient>
    <rect style="fill:url(#id7)" x="960.05" y="410.47" width="571.38" height="638.1"/>
   </mask>
  <linearGradient id="id8" gradientUnits="userSpaceOnUse" x1="1685.94" y1="1056.84" x2="1949.3" y2="2712.38">
   <stop offset="0" style="stop-opacity:1; stop-color:#005096"/>
   <stop offset="1" style="stop-opacity:1; stop-color:#6BD5FF"/>
  </linearGradient>
  <linearGradient id="id9" gradientUnits="userSpaceOnUse" x1="1450.33" y1="1385.57" x2="2558.58" y2="2437.47">
   <stop offset="0" style="stop-opacity:1; stop-color:#005096"/>
   <stop offset="1" style="stop-opacity:1; stop-color:#0781EB"/>
  </linearGradient>
 </defs>
 <g id="Layer_x0020_1">
  <metadata id="CorelCorpID_0Corel-Layer"/>
  <path class="fil0" d="M2683.54 917.89c-498.61,-556.18 -1452.63,-642.42 -2127.09,-321.4 -373.8,177.92 -673.9,604.88 -511.12,985.79 304.45,712.46 1857.25,693.83 2517.14,314.89 386.92,-222.2 415.62,-650.7 121.07,-979.28z"/>
  <path class="fil1" style="mask:url(#id0)" d="M1530.84 776.52c-532.23,-10.85 -1521.69,325.43 -1166.87,1036.89 5.41,11.34 11.23,22.65 17.5,33.94l1.38 2.45 1.38 2.44 1.39 2.44 2.83 4.87 2.85 4.83 1.45 2.42 1.45 2.4 1.46 2.4 1.47 2.4 1.48 2.38 1.49 2.38 1.51 2.37 1.5 2.37 1.52 2.36 3.08 4.7 1.56 2.34 3.12 4.66 1.59 2.31 1.59 2.32 1.59 2.3 1.61 2.3 3.25 4.59 1.63 2.28 1.64 2.28 1.66 2.28 1.67 2.26 1.67 2.26 1.68 2.25 1.7 2.25 1.71 2.25 1.71 2.23 1.73 2.23 1.73 2.22 1.74 2.22 1.74 2.21 1.76 2.2 1.76 2.19 3.55 4.37 3.6 4.36 1.81 2.16 1.82 2.16 1.83 2.15 1.84 2.14 1.85 2.14 1.86 2.14 1.87 2.13 1.87 2.13 1.88 2.12 3.79 4.22 1.91 2.1 1.91 2.1 1.93 2.09 1.93 2.08 1.94 2.07 1.95 2.07 1.96 2.06c9.33,4.22 18.76,8.34 28.29,12.38 9.52,4.05 19.14,8 28.84,11.87 9.7,3.88 19.48,7.67 29.38,11.37 9.87,3.7 19.82,7.33 29.87,10.86 10.03,3.53 20.16,6.99 30.36,10.36 10.19,3.36 20.47,6.64 30.83,9.86 10.34,3.2 20.77,6.32 31.28,9.36 10.49,3.03 21.06,5.99 31.7,8.88 10.63,2.87 21.33,5.66 32.11,8.38 10.77,2.71 21.6,5.34 32.5,7.9 10.89,2.56 21.83,5.03 32.86,7.42 11,2.39 22.07,4.7 33.2,6.94 11.13,2.24 22.29,4.39 33.54,6.47 11.23,2.07 22.5,4.08 33.83,6 11.33,1.92 22.7,3.77 34.12,5.53 11.41,1.76 22.89,3.45 34.39,5.07 11.5,1.61 23.04,3.14 34.64,4.61 4.02,0.51 8.05,1.01 12.09,1.49 -87.57,-109.12 -142.47,-224.52 -142.47,-338.48 0,-327.85 416.12,-593.61 929.42,-593.61 481.95,0 878.21,234.27 924.81,534.3 6.57,-7.94 12.87,-15.98 18.92,-24.12l0.48 -0.66c77.54,-104.57 112.89,-225.52 107.46,-349.95 -267.44,-432.82 -822.58,-604.65 -1350.27,-587.48z"/>
  <path class="fil2" style="mask:url(#id2)" d="M1374.91 410.8l0 580.85c0,31.44 -25.49,56.92 -56.91,56.92 -31.43,0 -56.91,-25.48 -56.91,-56.92l0 -575.78c37.86,-2.7 75.82,-4.39 113.81,-5.07zm-457.56 58.55c-38.39,9.35 -76.35,19.84 -113.82,31.37l0 637.17c0,6.7 1.16,13.12 3.28,19.08 14.32,-15.09 38.25,-24.98 65.37,-24.98 16.71,0 32.21,3.76 45.01,10.17 0.1,-1.41 0.16,-2.83 0.16,-4.26l0 -668.54z"/>
  <path class="fil3" d="M1829.43 1204.44c513.3,0 929.42,265.77 929.42,593.6 0,252.16 -246.17,467.59 -593.38,553.6 -219.86,54.46 -236.36,147.97 -153.09,305.74 11.69,19.04 12.52,75.27 -63.08,55 -393.59,-109.45 -1049.29,-520.48 -1049.29,-914.34 0,-327.83 416.12,-593.6 929.42,-593.6z"/>
  <path class="fil4" style="mask:url(#id4)" d="M1042.53 2136.55c541.57,65.6 1162.05,-33.85 1519.93,-239.38 78.62,-45.15 142.44,-98.82 191.78,-158.43 -46.59,-299.99 -442.85,-534.3 -924.81,-534.3 -513.3,0 -929.42,265.77 -929.42,593.61 0,113.97 54.95,229.38 142.53,338.5z"/>
  <path class="fil5" d="M952.82 1099.15c33.34,0 63.95,6.22 86.46,16.25 27.09,12.09 43.88,30.5 43.88,52.38 0,21.87 -16.79,40.29 -43.88,52.37 -22.51,10.03 -53.12,16.25 -86.46,16.25 -33.33,0 -63.94,-6.22 -86.46,-16.25 -27.09,-12.09 -43.87,-30.5 -43.87,-52.37 0,-21.88 16.78,-40.3 43.87,-52.38 22.52,-10.03 53.13,-16.25 86.46,-16.25zm71.04 50.77c-17.78,-7.92 -42.87,-12.83 -71.04,-12.83 -28.16,0 -53.26,4.91 -71.04,12.83 -13.18,5.88 -21.35,12.31 -21.35,17.86 0,5.55 8.17,11.97 21.35,17.85 17.78,7.92 42.88,12.83 71.04,12.83 28.17,0 53.26,-4.91 71.04,-12.83 13.19,-5.88 21.36,-12.3 21.36,-17.85 0,-5.55 -8.17,-11.97 -21.36,-17.86z"/>
  <path class="fil5" d="M952.82 1099.15c56.5,0 108.03,9.97 145.64,26.05 42.52,18.19 68.82,45.15 68.82,76.54 0,31.4 -26.3,58.36 -68.82,76.55 -37.61,16.08 -89.15,26.05 -145.64,26.05 -56.49,0 -108.02,-9.97 -145.63,-26.05 -42.53,-18.19 -68.82,-45.15 -68.82,-76.55 0,-31.39 26.3,-58.35 68.82,-76.54 37.61,-16.08 89.15,-26.05 145.63,-26.05zm130.81 60.88c-33.12,-14.17 -79.35,-22.94 -130.81,-22.94 -51.46,0 -97.69,8.78 -130.81,22.94 -28.23,12.07 -45.7,26.94 -45.7,41.71 0,14.77 17.47,29.65 45.7,41.71 33.13,14.17 79.35,22.94 130.81,22.94 51.46,0 97.7,-8.78 130.81,-22.94 28.24,-12.07 45.71,-26.94 45.71,-41.71 0,-14.76 -17.47,-29.64 -45.71,-41.71z"/>
  <path class="fil5" d="M1410.38 958.56c33.33,0 63.94,6.21 86.46,16.25 27.09,12.09 43.87,30.5 43.87,52.37 0,21.88 -16.78,40.3 -43.87,52.38 -22.52,10.03 -53.13,16.25 -86.46,16.25 -33.34,0 -63.94,-6.22 -86.46,-16.25 -27.09,-12.09 -43.88,-30.5 -43.88,-52.38 0,-21.87 16.79,-40.29 43.88,-52.37 22.52,-10.03 53.12,-16.25 86.46,-16.25zm71.04 50.77c-17.78,-7.92 -42.88,-12.83 -71.04,-12.83 -28.16,0 -53.26,4.91 -71.04,12.83 -13.19,5.88 -21.36,12.3 -21.36,17.85 0,5.56 8.17,11.97 21.36,17.85 17.78,7.93 42.88,12.83 71.04,12.83 28.16,0 53.26,-4.91 71.04,-12.83 13.19,-5.88 21.35,-12.29 21.35,-17.85 0,-5.55 -8.16,-11.97 -21.35,-17.85z"/>
  <path class="fil5" d="M1410.38 958.56c56.49,0 108.02,9.97 145.64,26.05 42.51,18.18 68.82,45.14 68.82,76.54 0,31.4 -26.3,58.35 -68.82,76.55 -37.62,16.08 -89.15,26.04 -145.64,26.04 -56.5,0 -108.02,-9.96 -145.64,-26.04 -42.52,-18.19 -68.82,-45.15 -68.82,-76.55 0,-31.4 26.31,-58.36 68.82,-76.54 37.62,-16.08 89.15,-26.05 145.64,-26.05zm130.81 60.87c-33.13,-14.16 -79.35,-22.93 -130.81,-22.93 -51.46,0 -97.7,8.78 -130.81,22.93 -28.23,12.08 -45.71,26.94 -45.71,41.71 0,14.77 17.48,29.64 45.71,41.71 33.12,14.16 79.35,22.93 130.81,22.93 51.46,0 97.69,-8.78 130.81,-22.93 28.23,-12.08 45.71,-26.94 45.71,-41.71 0,-14.77 -17.48,-29.64 -45.71,-41.71z"/>
  <path class="fil6" style="mask:url(#id6)" d="M1073.86 437.67l0 553.99c0,31.42 -25.49,56.91 -56.9,56.91 -31.44,0 -56.92,-25.49 -56.92,-56.91l0 -532.28c37.62,-8.29 75.59,-15.51 113.81,-21.71zm457.57 -23.88c-37.88,-2.14 -75.85,-3.23 -113.82,-3.32l0 581.2c0,31.42 25.48,56.91 56.92,56.91 31.42,0 56.91,-25.49 56.91,-56.91l0 -577.88z"/>
  <path class="fil7" d="M1009.73 823.41l343.75 -58.69 0 -100.92 -343.75 58.68 0 100.93zm343.75 56.61l-343.75 58.68 0 199.19c0,31.43 -25.47,56.9 -56.91,56.9 -31.43,0 -56.92,-25.47 -56.92,-56.9l0 -781.53c0,-26.41 -10.85,-50.51 -28.33,-67.98 -17.48,-17.49 -41.57,-28.33 -67.96,-28.33 -26.44,0 -50.52,10.85 -68,28.33 -17.48,17.47 -28.34,41.57 -28.34,67.98 0,31.43 -25.47,56.91 -56.92,56.91 -31.41,0 -56.89,-25.48 -56.89,-56.91 0,-57.83 23.63,-110.39 61.67,-148.45 38.08,-38.05 90.62,-61.68 148.45,-61.68 57.85,0 110.41,23.63 148.46,61.68 38.05,38.06 61.69,90.62 61.69,148.45l0 34.63 343.75 -58.69 0 -122.18c0,-26.42 -10.85,-50.51 -28.33,-67.97 -17.49,-17.5 -41.57,-28.34 -67.99,-28.34 -26.43,0 -50.51,10.85 -68,28.34 -17.46,17.46 -28.32,41.55 -28.32,67.97 0,31.45 -25.47,56.92 -56.89,56.92 -31.44,0 -56.92,-25.47 -56.92,-56.92 0,-57.84 23.64,-110.4 61.69,-148.45 38.05,-38.05 90.6,-61.67 148.45,-61.67 57.84,0 110.4,23.62 148.45,61.67 38.07,38.05 61.69,90.61 61.69,148.45l0 781.54c0,31.43 -25.49,56.9 -56.91,56.9 -31.43,0 -56.91,-25.47 -56.91,-56.9l0 -111.64zm0 -432.43l-343.75 58.67 0 100.95 343.75 -58.69 0 -100.93z"/>
  <path class="fil8" d="M4403.14 648.35l0 846.62 -586.83 -846.62 -261.65 0 0 1289.54 257.92 0 0 -846.6 586.83 846.6 261.64 0 0 -1289.54 -257.91 0zm8563.63 1289.54l242.95 0 0 -1345.59 -242.95 0 0 1345.59zm-613.52 22.42c291.56,0 512.09,-214.91 512.09,-498.99 0,-284.06 -220.53,-499 -512.09,-499 -291.53,0 -512.06,214.94 -512.06,499 0,284.07 220.53,498.99 512.06,498.99zm0 -235.47c-149.49,0 -261.64,-114 -261.64,-263.52 0,-149.5 112.14,-263.5 261.64,-263.5 151.39,0 261.66,114 261.66,263.5 0,149.52 -110.28,263.52 -261.66,263.52zm-1110.45 235.47c291.56,0 512.09,-214.91 512.09,-498.99 0,-284.06 -220.53,-499 -512.09,-499 -291.53,0 -512.06,214.94 -512.06,499 0,284.07 220.53,498.99 512.06,498.99zm0 -235.47c-149.5,0 -261.64,-114 -261.64,-263.52 0,-149.5 112.13,-263.5 261.64,-263.5 151.39,0 261.66,114 261.66,263.5 0,149.52 -110.28,263.52 -261.66,263.52zm-986.36 -1076.49l-562.52 0 0 1289.54 257.92 0 0 -429.85 304.61 0c250.44,0 442.95,-185.02 442.95,-429.85 0,-244.81 -192.51,-429.85 -442.95,-429.85zm-5.6 616.75l-299.01 0 0 -373.78 299.01 0c104.66,0 183.15,80.35 183.15,186.88 0,106.52 -78.49,186.9 -183.15,186.9zm-1102.88 -302.77c-123.35,0 -228.01,44.87 -302.77,128.97l0 -106.52 -242.95 0 0 953.12 242.95 0 0 -523.29c0,-130.81 89.72,-216.78 222.42,-216.78 127.07,0 209.29,84.1 209.29,213.05l0 527.02 242.98 0 0 -605.52c0,-224.28 -147.66,-370.05 -371.91,-370.05zm-1159.24 997.99c291.56,0 512.09,-214.91 512.09,-498.99 0,-284.06 -220.53,-499 -512.09,-499 -291.53,0 -512.07,214.94 -512.07,499 0,284.07 220.54,498.99 512.07,498.99zm0 -235.47c-149.5,0 -261.64,-114 -261.64,-263.52 0,-149.5 112.13,-263.5 261.64,-263.5 151.39,0 261.65,114 261.65,263.5 0,149.52 -110.27,263.52 -261.65,263.52zm-557.17 -755.04c-112.13,0 -205.57,50.46 -274.73,138.29l0 -123.32 -242.95 0 0 953.12 242.95 0 0 -452.27c0,-162.6 100.93,-265.39 274.73,-265.39l41.12 0 0 -250.44 -41.12 0zm-1121.57 990.51c267.25,0 444.79,-158.84 444.79,-401.81l0 -573.73 -242.95 0 0 540.1c0,121.49 -80.35,199.97 -201.84,199.97 -121.49,0 -201.84,-78.49 -201.84,-199.97l0 -540.1 -242.95 0 0 573.73c0,242.98 175.66,401.81 444.79,401.81zm-542.23 -497.12c0,-287.81 -214.91,-500.86 -500.85,-500.86 -287.81,0 -506.48,213.05 -506.48,495.27 0,285.94 226.14,502.72 528.9,502.72 179.42,0 332.66,-72.87 431.71,-190.63l-162.6 -142.01c-50.45,63.53 -145.77,117.73 -261.64,117.73 -138.29,0 -239.22,-76.62 -272.86,-196.24l738.21 0c3.73,-26.15 5.6,-59.8 5.6,-85.97zm-502.72 -287.81c117.73,0 213.05,76.63 242.95,196.25l-485.92 0c29.9,-117.74 123.35,-196.25 242.98,-196.25z"/>
 </g>
</svg>
