<?xml version="1.0" encoding="UTF-8"?><svg id="c" xmlns="http://www.w3.org/2000/svg" xmlns:xlink="http://www.w3.org/1999/xlink" viewBox="0 0 2403.01 1883.86"><defs><linearGradient id="d" x1="218.55" y1="1223.29" x2="696.29" y2="711.66" gradientUnits="userSpaceOnUse"><stop offset=".55" stop-color="#e27d95"/><stop offset=".58" stop-color="#d5758c"/><stop offset=".62" stop-color="#b26275"/><stop offset=".69" stop-color="#7a4451"/><stop offset=".76" stop-color="#2e191e"/><stop offset=".81" stop-color="#000"/></linearGradient><linearGradient id="e" x1="7983.87" y1="1223.29" x2="8461.61" y2="711.66" gradientTransform="translate(10157.16) rotate(-180) scale(1 -1)" xlink:href="#d"/><linearGradient id="f" x1="1354.94" y1="1643.27" x2="1354.94" y2="977.93" gradientUnits="userSpaceOnUse"><stop offset=".55" stop-color="#f27695"/><stop offset=".57" stop-color="#e56f8d"/><stop offset=".62" stop-color="#c25e77"/><stop offset=".68" stop-color="#8a4355"/><stop offset=".75" stop-color="#3f1e26"/><stop offset=".81" stop-color="#000"/></linearGradient><linearGradient id="g" x1="7848.29" y1="1643.27" x2="7848.29" y2="977.93" gradientTransform="translate(8807.81) rotate(-180) scale(1 -1)" xlink:href="#f"/><clipPath id="h"><path d="M739.05,956.72c-35.96-48.01-50.9-112.7-41-177.48,8.87-58.08,31.57-107.13,69.39-149.95,49.75-56.34,125.7-100.18,225.76-130.39l-.15,18.73-.19,24.13c-24.67,6.16-92.44,26.25-149.51,72.22l14.73,18.29c48.93-39.41,107.95-58.84,134.58-66.13l-.14,17.63-.16,20.03c-60.04,17.74-109.13,43.82-146.53,77.76h0s-.07.07-.11.11c-9.89,8.98-18.97,18.5-27.2,28.58-12.58,15.39-23.23,32.12-31.96,50.09l-.05-.02c-.11.24-.21.5-.32.75-11.52,23.9-19.6,49.99-24.15,78.05-5.7,35.2-9.1,102.52,32.2,157.84,5.72,7.66,12.08,14.78,19.05,21.37-29.98-15.27-55.02-35.97-74.23-61.6Z" fill="none" stroke-width="0"/></clipPath><clipPath id="i"><path d="M1583.94,938.5c-15.18-29.27-42.02-52.57-75.46-63.34-48.44-15.61-96.85-11.41-98.88-11.22l2.13,23.39c.45-.04,45.82-3.9,89.55,10.19,41.89,13.5,71.12,50.76,72.75,92.72,1.54,39.85-22.25,73.78-63.66,90.76l-1.58.66c-.71.29-1.41.59-2.13.88-19.78,7.92-38.4,14.71-56.4,21.28-67.35,24.55-125.51,45.75-196.44,109.02-7.33,6.53-19.24,11.44-28.12,6.76-12.08-6.37-16.8-29.69-12.6-62.39h-.06c2.01-15.11,5.05-30.37,11.71-44.04,3.89-8.37,10.52-16.24,18.73-20.17,13.14-6.17,34.17,9.86,41.9,18.2-13.92-37.62-48.38-51.94-85.49-55.24-30.91-2.75-52.81-2.3-85.32-1.3-43.75,1.35-96.44,2.97-165.63-3.63-62.41-8.02-108.12-30.94-135.88-68.12-36.12-48.37-32.94-108.5-27.83-140.04,1.17-7.21,2.6-14.26,4.27-21.16,5.49-29.74,17.91-50.43,17.91-50.43,4.9-10.14,10.46-19.86,16.72-29.13.17.78.35,1.56.56,2.34,6.36,23.18,29.83,40.19,69.73,50.54l5.9-22.73c-30.69-7.96-49.01-19.7-52.97-33.95-4.25-15.31,8.55-33.18,14.56-39.62,33.28-30.18,76.76-53.67,130.26-70.3l-.66,82.48c-19.5-.16-28.64-.69-28.93-.7l-1.45,23.44c1.4.09,14.76.86,43.08.86,48.85,0,142.2-2.31,295.46-14.46l-1.85-23.41c-19.4,1.54-37.84,2.91-55.37,4.15l1.42-97.39c102.12,6.11,196.07,28.19,265.64,62.56,40.02,19.77,71.12,43.2,92.45,69.64,22.85,28.33,34.44,60.28,34.44,94.98,0,58.13-26.48,90.32-52.45,107.92Z" fill="none" stroke-width="0"/></clipPath><linearGradient id="j" x1="1578.2" y1="904.15" x2="1399.69" y2="505.61" gradientUnits="userSpaceOnUse"><stop offset=".44" stop-color="#e27d95"/><stop offset=".51" stop-color="#e4868a"/><stop offset=".64" stop-color="#eca06e"/><stop offset=".79" stop-color="#f7c745"/></linearGradient><clipPath id="k"><path d="M1645.15,902.81c-.34.35-.69.68-1.03,1.03,9.41-19.23,15.76-43.29,15.76-73.25,0-76.23-48.4-140.44-139.97-185.68-72.56-35.85-170.1-58.81-275.7-65.02l.32-21.66.27-18.72c20.41,1.57,73.22,6.46,118.81,17.64l5.59-22.81c-48.91-12-104.06-16.89-124.06-18.37l.29-20.02.28-19.39c106.79,7.42,206.53,33.16,282.01,72.92,93.34,49.17,147.57,116.63,161.21,200.52,10.01,61.58-4.72,112.99-43.78,152.82Z" fill="none" stroke-width="0"/></clipPath><linearGradient id="l" x1="625.65" y1="423.02" x2="829.27" y2="423.02" gradientUnits="userSpaceOnUse"><stop offset=".21" stop-color="#92c0df"/><stop offset=".29" stop-color="#9ac0d2"/><stop offset=".44" stop-color="#b0c2af"/><stop offset=".65" stop-color="#d5c478"/><stop offset=".82" stop-color="#f7c745"/></linearGradient><linearGradient id="m" x1="1520.18" x2="1723.8" xlink:href="#l"/></defs><circle cx="464.56" cy="1169.48" r="51.95" fill="#f7c745" stroke="#000" stroke-miterlimit="10" stroke-width="18"/><path d="M360.96,1197.36c-19.88,0-36-16.12-36-36,0-95.42,20.83-178.94,61.9-248.24,33.19-55.99,79.34-102.47,137.18-138.13,97.23-59.95,193.88-68.39,197.95-68.72,19.83-1.62,37.19,13.15,38.8,32.97,1.61,19.79-13.11,37.14-32.88,38.79h0c-.85.07-85.67,7.89-168.31,59.64-47.25,29.59-84.8,67.79-111.62,113.56-33.85,57.76-51.01,128.46-51.01,210.13,0,19.88-16.12,36-36,36Z" fill="url(#d)" stroke="#000" stroke-miterlimit="10" stroke-width="18"/><circle cx="358.23" cy="1160.54" r="79.06" fill="#f7c745" stroke="#000" stroke-linejoin="bevel" stroke-width="18"/><rect x="251.53" y="1160.54" width="52.33" height="140.61" rx="26.16" ry="26.16" fill="#f7c745" stroke="#000" stroke-miterlimit="10" stroke-width="18"/><rect x="305.22" y="1160.54" width="52.33" height="140.61" rx="26.16" ry="26.16" fill="#f7c745" stroke="#000" stroke-miterlimit="10" stroke-width="18"/><rect x="358.92" y="1160.54" width="52.33" height="140.61" rx="26.16" ry="26.16" fill="#f7c745" stroke="#000" stroke-miterlimit="10" stroke-width="18"/><rect x="412.61" y="1160.54" width="52.33" height="140.61" rx="26.16" ry="26.16" fill="#f7c745" stroke="#000" stroke-miterlimit="10" stroke-width="18"/><circle cx="1927.29" cy="1169.48" r="51.95" fill="#f7c745" stroke="#000" stroke-miterlimit="10" stroke-width="18"/><path d="M2030.88,1197.36c19.88,0,36-16.12,36-36,0-95.42-20.83-178.94-61.9-248.24-33.19-55.99-79.34-102.47-137.18-138.13-97.23-59.95-193.88-68.39-197.95-68.72-19.83-1.62-37.19,13.15-38.8,32.97-1.61,19.79,13.11,37.14,32.88,38.79h0c.85.07,85.67,7.89,168.31,59.64,47.25,29.59,84.8,67.79,111.62,113.56,33.85,57.76,51.01,128.46,51.01,210.13,0,19.88,16.12,36,36,36Z" fill="url(#e)" stroke="#000" stroke-miterlimit="10" stroke-width="18"/><circle cx="2033.61" cy="1160.54" r="79.06" fill="#f7c745" stroke="#000" stroke-linejoin="bevel" stroke-width="18"/><rect x="2087.99" y="1160.54" width="52.33" height="140.61" rx="26.16" ry="26.16" transform="translate(4228.3 2461.69) rotate(-180)" fill="#f7c745" stroke="#000" stroke-miterlimit="10" stroke-width="18"/><rect x="2034.3" y="1160.54" width="52.33" height="140.61" rx="26.16" ry="26.16" transform="translate(4120.92 2461.69) rotate(-180)" fill="#f7c745" stroke="#000" stroke-miterlimit="10" stroke-width="18"/><rect x="1980.6" y="1160.54" width="52.33" height="140.61" rx="26.16" ry="26.16" transform="translate(4013.53 2461.69) rotate(-180)" fill="#f7c745" stroke="#000" stroke-miterlimit="10" stroke-width="18"/><rect x="1926.91" y="1160.54" width="52.33" height="140.61" rx="26.16" ry="26.16" transform="translate(3906.15 2461.69) rotate(180)" fill="#f7c745" stroke="#000" stroke-miterlimit="10" stroke-width="18"/><path d="M1516.69,1511.03h90c0-149.9-40-297.53-115.67-426.93-75.67-129.4-184.73-236.64-315.37-310.14l-28.34-15.94-44.13,78.44,28.34,15.94c116.74,65.68,214.19,161.51,281.81,277.14,67.62,115.63,103.36,247.55,103.36,381.5Z" fill="url(#f)" stroke="#000" stroke-miterlimit="10" stroke-width="18"/><rect x="1504.31" y="1634.88" width="352.09" height="73.7" transform="translate(3360.71 3343.45) rotate(-180)" fill="#fff" stroke="#000" stroke-miterlimit="10" stroke-width="18"/><rect x="1558.11" y="1634.88" width="244.49" height="73.7" transform="translate(3360.71 3343.45) rotate(-180)" fill="none" stroke="#000" stroke-miterlimit="10" stroke-width="18"/><rect x="1605.35" y="1634.88" width="150.02" height="73.7" transform="translate(3360.71 3343.45) rotate(-180)" fill="none" stroke="#000" stroke-miterlimit="10" stroke-width="18"/><rect x="1655.44" y="1634.88" width="49.84" height="73.7" transform="translate(3360.71 3343.45) rotate(-180)" fill="none" stroke="#000" stroke-miterlimit="10" stroke-width="18"/><polygon points="1504.31 1475.26 1629.95 1475.26 1861.74 1634.88 1504.31 1634.88 1504.31 1475.26" fill="#f7c745" stroke="#000" stroke-linejoin="bevel" stroke-width="18"/><rect x="1472.31" y="1379.44" width="187.78" height="95.82" rx="14.07" ry="14.07" transform="translate(3132.4 2854.69) rotate(-180)" fill="#f7c745" stroke="#000" stroke-linejoin="bevel" stroke-width="18"/><rect x="1746.01" y="1533.15" width="42.19" height="74.46" rx="20.6" ry="20.6" transform="translate(2155.25 3902.36) rotate(-141.08)" fill="#fff" stroke="#000" stroke-miterlimit="10" stroke-width="18"/><rect x="1711.98" y="1505.67" width="42.19" height="74.46" rx="20.6" ry="20.6" transform="translate(2112.01 3832.12) rotate(-141.08)" fill="#fff" stroke="#000" stroke-miterlimit="10" stroke-width="18"/><rect x="1677.95" y="1478.19" width="42.19" height="74.46" rx="20.6" ry="20.6" transform="translate(2068.77 3761.87) rotate(-141.08)" fill="#fff" stroke="#000" stroke-miterlimit="10" stroke-width="18"/><path d="M797.76,1511.03h-90c0-149.9,40-297.53,115.67-426.93,75.67-129.4,184.73-236.64,315.37-310.14l28.34-15.94,44.13,78.44-28.34,15.94c-116.74,65.68-214.19,161.51-281.81,277.14-67.62,115.63-103.36,247.55-103.36,381.5Z" fill="url(#g)" stroke="#000" stroke-miterlimit="10" stroke-width="18"/><rect x="458.05" y="1634.88" width="352.09" height="73.7" fill="#fff" stroke="#000" stroke-miterlimit="10" stroke-width="18"/><rect x="511.86" y="1634.88" width="244.49" height="73.7" fill="none" stroke="#000" stroke-miterlimit="10" stroke-width="18"/><rect x="559.09" y="1634.88" width="150.02" height="73.7" fill="none" stroke="#000" stroke-miterlimit="10" stroke-width="18"/><rect x="609.18" y="1634.88" width="49.84" height="73.7" fill="none" stroke="#000" stroke-miterlimit="10" stroke-width="18"/><polygon points="810.15 1475.26 684.5 1475.26 452.72 1634.88 810.15 1634.88 810.15 1475.26" fill="#f7c745" stroke="#000" stroke-linejoin="bevel" stroke-width="18"/><rect x="654.36" y="1379.44" width="187.78" height="95.82" rx="14.07" ry="14.07" fill="#f7c745" stroke="#000" stroke-linejoin="bevel" stroke-width="18"/><rect x="526.25" y="1533.15" width="42.19" height="74.46" rx="20.6" ry="20.6" transform="translate(-865.12 692.54) rotate(-38.92)" fill="#fff" stroke="#000" stroke-miterlimit="10" stroke-width="18"/><rect x="560.28" y="1505.67" width="42.19" height="74.46" rx="20.6" ry="20.6" transform="translate(-840.3 707.81) rotate(-38.92)" fill="#fff" stroke="#000" stroke-miterlimit="10" stroke-width="18"/><rect x="594.31" y="1478.19" width="42.19" height="74.46" rx="20.6" ry="20.6" transform="translate(-815.48 723.09) rotate(-38.92)" fill="#fff" stroke="#000" stroke-miterlimit="10" stroke-width="18"/><path d="M1774.44,736.1c-8.15-50.13-27.21-96.46-56.66-137.72-28.56-40.01-67.13-75.46-114.62-105.36-41.17-25.91-89.5-47.69-143.67-64.71-49.19-15.46-102.13-26.68-157.58-33.41-7.19-21.88-19.4-41.92-35.84-58.65-28.77-29.26-67.26-45.37-108.38-45.37-30.6,0-60.13,9.07-85.38,26.24-1.51,1.03-3,2.08-4.48,3.17-22.26-11.27-46.97-17.16-72.33-17.16-88.39,0-160.3,71.91-160.3,160.3v6.36c-56.62,30.26-103.37,67.14-139.1,109.74-44.76,53.37-72.92,116.16-83.68,186.62-13.39,87.62,7.5,176.01,57.3,242.5,50.73,67.73,128.27,110.35,224.26,123.24,30.8,4.14,60.44,7,90.22,8.7,13.77,19.97,44.65,57.16,92.57,99.18,33.9,29.72,70.68,56.83,109.33,80.58,47.14,28.97,97.05,52.89,148.36,71.11,11.32,4.02,23.49,7.74,35.81,7.74s23.34-3.13,32.93-9.31c18.95-12.2,30-35.23,31.11-64.84,1.49-39.91,6.41-69.43,22.34-131.28,7.56-2.82,15.28-5.64,23.3-8.56l.11-.04c18.6-6.78,37.84-13.79,58.86-22.22,1.14-.46,2.27-.93,3.39-1.4l1.14-.48c36.27-14.91,66.28-38.5,86.79-68.24,18.65-27.04,29.04-58.44,30.39-91.48,16.61-10.82,31.87-23.2,45.47-36.93,25.38-25.62,44.47-55.41,56.74-88.56,15.84-42.78,19.76-89.82,11.64-139.79Z" fill="#000" stroke-width="0"/><path d="M1008.26,367.1c-4.2-.55-8.46-.82-12.77-.82-2.09,0-4.17.07-6.23.2,2.06-.13,4.14-.2,6.23-.2,4.31,0,8.57.28,12.77.82Z" fill="none" stroke-width="0"/><rect x="1323.96" y="865.74" width="44.41" height="23.48" transform="translate(-28.14 44.77) rotate(-1.89)" fill="#fff" stroke-width="0"/><path d="M1047.42,809.45l-.3-23.48c-55.47.72-94.19-3.27-94.57-3.31l-2.46,23.36c1.49.16,34.1,3.52,83.32,3.52,4.53,0,9.21-.03,14.01-.09Z" fill="#fff" stroke-width="0"/><path d="M1071.86,898.59c135.2-5.56,209.66-7.28,210.39-7.3l-.4-23.48c-.74.01-75.49,1.32-211.03,7.32-10.21.45-21.99.47-34.61.17v23.57c11.34.29,23.22.23,35.64-.29Z" fill="#fff" stroke-width="0"/><path d="M1003.83,874.01c-62.68-3.35-130.55-11.21-130.82-11.33,0,0,46.14,26.67,130.82,34.32v-22.99Z" fill="#fff" stroke-width="0"/><path d="M1297.83,776.46c-12.18.95-24.77,1.83-37.43,2.64v22.95c13.26-.72,26.48-1.45,39.26-2.18,83.15-4.76,131.94-10.79,196.66-2.5-45.54-34.26-110.91-27.75-198.49-20.92Z" fill="#fff" stroke-width="0"/><path d="M1102.56,786.47l.69,23.47c.79-.02,59.22-2.75,124.76-6.17v-22.74c-65.67,3.65-124.66,5.42-125.45,5.44Z" fill="#fff" stroke-width="0"/><path d="M883.36,954.77c7.38,8.52,50.01,28.94,145.01,35.09v-21.79c-95.78-2.38-145.01-13.29-145.01-13.29Z" fill="#fff" stroke-width="0"/><path d="M1213.66,963.65c-28.22,1.33-57.39,2.71-88.53,3.81-23.08.81-44.53,1.12-64.37,1.06v22.8c19.82.52,41.51.45,65.2-.39,31.28-1.1,60.53-2.48,88.81-3.81,146.34-6.9,240.14-6.12,262.18,36.54-5.88-46.68-41.18-56.3-75.31-60.71-46.16-5.97-108.75-3.02-187.98.72Z" fill="#fff" stroke-width="0"/><path d="M1752.67,739.63c-7.6-46.75-25.38-89.97-52.84-128.44-26.89-37.67-63.36-71.15-108.42-99.51-79.61-50.11-187.53-83.94-306.87-96.56-5.01-23.73-16.71-45.61-34.2-63.41-24.59-25.01-57.5-38.78-92.66-38.78-26.16,0-51.4,7.76-72.98,22.43-5.19,3.53-10.09,7.4-14.66,11.58-22.03-14.17-47.68-21.76-74.55-21.76-76.23,0-138.25,62.02-138.25,138.25v19.75c-59.44,30.05-107.89,67.16-144.26,110.52-42.13,50.23-68.63,109.37-78.78,175.78-12.5,81.81,6.88,164.16,53.15,225.95,40.09,53.53,98.57,90.19,170.57,107.38-.13-.15-12.4-15.01-13.81-43.85,0,0,49.91,52.63,116.29,57.9,12.13.97,24.22,1.73,36.37,2.3,0,0,113.22,1.12,146.2,18.2,0,0-65.51,1.54-121.41,15.51,46.15,54.66,154.71,159.02,320.24,217.8,10.7,3.8,20.01,6.47,28.43,6.47,7.98,0,14.99-1.93,20.99-5.79,12.72-8.19,20.18-24.92,21.01-47.12,1.36-36.54,5.56-65.24,17.92-115.68-37,6.6-70.23,19.71-70.23,19.71,24.98-29.66,78.21-51.08,78.21-51.08,11.05-4.24,22.41-8.38,34.23-12.69l.09-.03c18.45-6.73,37.53-13.68,58.22-21.97,1.03-.41,2.05-.84,3.06-1.26l1.26-.52c32.32-13.28,58.96-34.15,77.05-60.37,18.4-26.68,27.58-58.22,26.56-91.27,0,0-1.04-27.94-12.16-44.05,0,0,20.77,6.8,30.78,31.97,10.71-7.61,22.09-16.89,33.16-28.06,23.15-23.37,40.55-50.51,51.73-80.69,14.5-39.17,18.06-82.43,10.55-128.59ZM1246.11,437.81c.09,1.85.11,3.71.08,5.58l-.1,6.97.1-6.97c.03-1.87,0-3.73-.08-5.58ZM1246.05,453.01c8.58.59,17.18,1.32,25.8,2.16-8.55-.82-17.15-1.54-25.8-2.13v-.03ZM1238.3,405.49c-.93-2.03-1.96-4-3.05-5.96,1.09,1.95,2.12,3.93,3.05,5.96ZM1092.64,455.58v-13.66c0-35.51,29.18-64.4,65.04-64.4,17.7,0,34.26,6.92,46.61,19.48,12.17,12.38,18.72,28.72,18.43,46.03l-3.78,259.37c-16.32,1.08-31.76,2.03-46.36,2.87l1.07-143.23.32-.02v-42.31l.43-57.21c0-35.58-32.93-43.31-48.84-38.52,0,0,25.38,4.79,25.38,39.28h-58.29v-7.66ZM1092.4,493.2l.2-3.77h53.33v27.76h-53.54v-23.99ZM1090.9,567.81l.41-24.44h58.98l-.15,20.29-.12,16.34h-59.33l.2-12.19ZM1145.94,603.49v24.9h-53.54v-24.9h53.54ZM1089.45,653.81l.03-1.94h60l-.41,54.67c-22.38,1.16-42.52,2.04-60.55,2.69l.93-55.42ZM1075.74,408.68s0,0,0,0c0,0,0,0,0,0h0ZM995.49,366.28c4.31,0,8.57.28,12.77.82-4.2-.55-8.46-.82-12.77-.82-2.09,0-4.17.07-6.23.2,2.06-.13,4.14-.2,6.23-.2ZM921.82,463.43c0-40.62,33.05-73.67,73.67-73.67,19.91,0,38.56,7.82,52.52,22.02,13.63,13.86,21.08,32.08,21.12,51.46h-.21v14.83l-3.89,231.93c-19.69.56-36.31.83-50.04.92l1.85-232.18c0-34.15-33.14-42.99-48.84-38.57h0s25.08,5.25,25.08,34.26c-.3.09-.61.17-.9.25-24.88,7.32-48.32,15.44-70.35,24.35v-35.6ZM898.34,509.07h0s0,0,0,0c0,0,0,0,0,0ZM739.05,956.72c-35.96-48.01-50.9-112.7-41-177.48,8.87-58.08,31.57-107.13,69.39-149.95,49.75-56.34,125.7-100.18,225.76-130.39l-.15,18.73-.19,24.13c-24.67,6.16-92.44,26.25-149.51,72.22l14.73,18.29c48.93-39.41,107.95-58.84,134.58-66.13l-.14,17.63-.16,20.03c-60.04,17.74-109.13,43.82-146.53,77.76h0s-.07.07-.11.11c-9.89,8.98-18.97,18.5-27.2,28.58-12.58,15.39-23.23,32.12-31.96,50.09l-.05-.02c-.11.24-.21.5-.32.75-11.52,23.9-19.6,49.99-24.15,78.05-5.7,35.2-9.1,102.52,32.2,157.84,5.72,7.66,12.08,14.78,19.05,21.37-29.98-15.27-55.02-35.97-74.23-61.6ZM1382.49,1243.54c-7.91,46.67-7.22,66.08-6.76,89.03.21,10.53-9.72,18.36-19.73,15.08-51.51-16.9-104.51-54.45-104.51-54.45,0,0,55.54,20.52,77.49,15.68,35.54-7.84,53.5-65.33,53.5-65.33ZM1583.94,938.5c-15.18-29.27-42.02-52.57-75.46-63.34-48.44-15.61-96.85-11.41-98.88-11.22l2.13,23.39c.45-.04,45.82-3.9,89.55,10.19,41.89,13.5,71.12,50.76,72.75,92.72,1.54,39.85-22.25,73.78-63.66,90.76l-1.58.66c-.71.29-1.41.59-2.13.88-19.78,7.92-38.4,14.71-56.4,21.28-67.35,24.55-125.51,45.75-196.44,109.02-7.33,6.53-19.24,11.44-28.12,6.76-12.08-6.37-16.8-29.69-12.6-62.39h-.06c2.01-15.11,5.05-30.37,11.71-44.04,3.89-8.37,10.52-16.24,18.73-20.17,13.14-6.17,34.17,9.86,41.9,18.2-13.92-37.62-48.38-51.94-85.49-55.24-30.91-2.75-52.81-2.3-85.32-1.3-43.75,1.35-96.44,2.97-165.63-3.63-62.41-8.02-108.12-30.94-135.88-68.12-36.12-48.37-32.94-108.5-27.83-140.04,1.17-7.21,2.6-14.26,4.27-21.16,5.49-29.74,17.91-50.43,17.91-50.43,4.9-10.14,10.46-19.86,16.72-29.13.17.78.35,1.56.56,2.34,6.36,23.18,29.83,40.19,69.73,50.54l5.9-22.73c-30.69-7.96-49.01-19.7-52.97-33.95-4.25-15.31,8.55-33.18,14.56-39.62,33.28-30.18,76.76-53.67,130.26-70.3l-.66,82.48c-19.5-.16-28.64-.69-28.93-.7l-1.45,23.44c1.4.09,14.76.86,43.08.86,48.85,0,142.2-2.31,295.46-14.46l-1.85-23.41c-19.4,1.54-37.84,2.91-55.37,4.15l1.42-97.39c102.12,6.11,196.07,28.19,265.64,62.56,40.02,19.77,71.12,43.2,92.45,69.64,22.85,28.33,34.44,60.28,34.44,94.98,0,58.13-26.48,90.32-52.45,107.92ZM1645.15,902.81c-.34.35-.69.68-1.03,1.03,9.41-19.23,15.76-43.29,15.76-73.25,0-76.23-48.4-140.44-139.97-185.68-72.56-35.85-170.1-58.81-275.7-65.02l.32-21.66.27-18.72c20.41,1.57,73.22,6.46,118.81,17.64l5.59-22.81c-48.91-12-104.06-16.89-124.06-18.37l.29-20.02.28-19.39c106.79,7.42,206.53,33.16,282.01,72.92,93.34,49.17,147.57,116.63,161.21,200.52,10.01,61.58-4.72,112.99-43.78,152.82Z" fill="#fff" stroke-width="0"/><path d="M1398.29,564.08c39.09,2.83,67.34,4.83,67.34,4.83-21.24-16.4-59.74-27.13-61.59-27.6l-5.75,22.77Z" fill="#fff" stroke-width="0"/><path d="M1394.31,708.35c-27.07-13.65-69.1-13.66-71-13.49l2.03,23.4c30.22-6.4,68.97-9.91,68.97-9.91Z" fill="#fff" stroke-width="0"/><path d="M941.15,731.64l.86-23.34c-28.03-.1-45.11-1.93-45.11-1.93,7.27,16.86,42.52,25.12,44.25,25.27Z" fill="#fff" stroke-width="0"/><path d="M830.92,652.51l-15.67-17.49c-1.25,1.12-33.13,31.61-39.46,59.27,17.01-22.43,54.84-41.52,55.13-41.78Z" fill="#fff" stroke-width="0"/><path d="M1246.11,437.81c.09,1.85.11,3.71.08,5.58l-.1,6.97.1-6.97c.03-1.87,0-3.73-.08-5.58Z" fill="#fff" stroke-width="0"/><path d="M1246.05,453.01c8.58.59,17.18,1.32,25.8,2.16-8.55-.82-17.15-1.54-25.8-2.13v-.03Z" fill="#fff" stroke-width="0"/><path d="M1238.3,405.49c-.93-2.03-1.96-4-3.05-5.96,1.09,1.95,2.12,3.93,3.05,5.96Z" fill="#fff" stroke-width="0"/><polygon points="1090.9 567.81 1091.31 543.37 1150.29 543.37 1150.14 563.67 1150.02 580.01 1090.69 580.01 1090.9 567.81" fill="#f7c745" stroke-width="0"/><path d="M1089.45,653.81l.03-1.94h60l-.41,54.67c-22.38,1.16-42.52,2.04-60.55,2.69l.93-55.42Z" fill="#85c2e2" stroke-width="0"/><polygon points="1075.74 408.68 1075.75 408.68 1075.74 408.69 1075.74 408.68" fill="#fff" stroke-width="0"/><path d="M995.49,366.28c4.31,0,8.57.28,12.77.82-4.2-.55-8.46-.82-12.77-.82-2.09,0-4.17.07-6.23.2,2.06-.13,4.14-.2,6.23-.2Z" fill="#fff" stroke-width="0"/><path d="M1092.64,455.58v-13.66c0-35.51,29.18-64.4,65.04-64.4,17.7,0,34.26,6.92,46.61,19.48,12.17,12.38,18.72,28.72,18.43,46.03l-3.78,259.37c-16.32,1.08-31.76,2.03-46.36,2.87l1.07-143.23.32-.02v-42.31l.43-57.21c0-35.58-32.93-43.31-48.84-38.52,0,0,25.38,4.79,25.38,39.28h-58.29v-7.66Z" fill="#000" stroke-width="0"/><polygon points="1092.4 493.2 1092.6 489.42 1145.94 489.42 1145.94 517.19 1092.4 517.19 1092.4 493.2" fill="#92c0df" stroke-width="0"/><rect x="1092.4" y="603.49" width="53.54" height="24.9" fill="#85c2e2" stroke-width="0"/><path d="M1089.45,653.81l.03-1.94h60l-.41,54.67c-22.38,1.16-42.52,2.04-60.55,2.69l.93-55.42Z" fill="#000" opacity=".24" stroke-width="0"/><rect x="1092.4" y="603.49" width="53.54" height="24.9" fill="#000" opacity=".24" stroke-width="0"/><path d="M921.82,463.43c0-40.62,33.05-73.67,73.67-73.67,19.91,0,38.56,7.82,52.52,22.02,13.63,13.86,21.08,32.08,21.12,51.46h-.21v14.83l-3.89,231.93c-19.69.56-36.31.83-50.04.92l1.85-232.18c0-34.15-33.14-42.99-48.84-38.57h0s25.08,5.25,25.08,34.26c-.3.09-.61.17-.9.25-24.88,7.32-48.32,15.44-70.35,24.35v-35.6Z" fill="#000" stroke-width="0"/><polygon points="898.34 509.07 898.34 509.07 898.33 509.08 898.34 509.07" fill="#fff" stroke-width="0"/><path d="M739.05,956.72c-35.96-48.01-50.9-112.7-41-177.48,8.87-58.08,31.57-107.13,69.39-149.95,49.75-56.34,125.7-100.18,225.76-130.39l-.15,18.73-.19,24.13c-24.67,6.16-92.44,26.25-149.51,72.22l14.73,18.29c48.93-39.41,107.95-58.84,134.58-66.13l-.14,17.63-.16,20.03c-60.04,17.74-109.13,43.82-146.53,77.76h0s-.07.07-.11.11c-9.89,8.98-18.97,18.5-27.2,28.58-12.58,15.39-23.23,32.12-31.96,50.09l-.05-.02c-.11.24-.21.5-.32.75-11.52,23.9-19.6,49.99-24.15,78.05-5.7,35.2-9.1,102.52,32.2,157.84,5.72,7.66,12.08,14.78,19.05,21.37-29.98-15.27-55.02-35.97-74.23-61.6Z" fill="#85c2e2" stroke-width="0"/><g clip-path="url(#h)"><path d="M720.73,701.09s-28.13,89.95,11.72,100.96c27.11,7.49,54.08-41.71,54.08-41.71l-15.68,152.08,53.25,111.23s-32.98,15.44-41.98,10.92c-9.01-4.52-88.07-100.52-95.97-111.81-7.91-11.29-29.36-105.04-29.36-105.04l63.95-116.63Z" fill="#000" opacity=".24" stroke-width="0"/><rect x="950.09" y="444.09" width="86.12" height="250.74" fill="#000" opacity=".24" stroke-width="0"/></g><path d="M1382.49,1243.54c-7.91,46.67-7.22,66.08-6.76,89.03.21,10.53-9.72,18.36-19.73,15.08-51.51-16.9-104.51-54.45-104.51-54.45,0,0,55.54,20.52,77.49,15.68,35.54-7.84,53.5-65.33,53.5-65.33Z" fill="#92c0df" stroke-width="0"/><path d="M1583.94,938.5c-15.18-29.27-42.02-52.57-75.46-63.34-48.44-15.61-96.85-11.41-98.88-11.22l2.13,23.39c.45-.04,45.82-3.9,89.55,10.19,41.89,13.5,71.12,50.76,72.75,92.72,1.54,39.85-22.25,73.78-63.66,90.76l-1.58.66c-.71.29-1.41.59-2.13.88-19.78,7.92-38.4,14.71-56.4,21.28-67.35,24.55-125.51,45.75-196.44,109.02-7.33,6.53-19.24,11.44-28.12,6.76-12.08-6.37-16.8-29.69-12.6-62.39h-.06c2.01-15.11,5.05-30.37,11.71-44.04,3.89-8.37,10.52-16.24,18.73-20.17,13.14-6.17,34.17,9.86,41.9,18.2-13.92-37.62-48.38-51.94-85.49-55.24-30.91-2.75-52.81-2.3-85.32-1.3-43.75,1.35-96.44,2.97-165.63-3.63-62.41-8.02-108.12-30.94-135.88-68.12-36.12-48.37-32.94-108.5-27.83-140.04,1.17-7.21,2.6-14.26,4.27-21.16,5.49-29.74,17.91-50.43,17.91-50.43,4.9-10.14,10.46-19.86,16.72-29.13.17.78.35,1.56.56,2.34,6.36,23.18,29.83,40.19,69.73,50.54l5.9-22.73c-30.69-7.96-49.01-19.7-52.97-33.95-4.25-15.31,8.55-33.18,14.56-39.62,33.28-30.18,76.76-53.67,130.26-70.3l-.66,82.48c-19.5-.16-28.64-.69-28.93-.7l-1.45,23.44c1.4.09,14.76.86,43.08.86,48.85,0,142.2-2.31,295.46-14.46l-1.85-23.41c-19.4,1.54-37.84,2.91-55.37,4.15l1.42-97.39c102.12,6.11,196.07,28.19,265.64,62.56,40.02,19.77,71.12,43.2,92.45,69.64,22.85,28.33,34.44,60.28,34.44,94.98,0,58.13-26.48,90.32-52.45,107.92Z" fill="#85c2e2" stroke-width="0"/><g clip-path="url(#i)"><path d="M1517.7,670.12s144.91,113.99,17.25,216.91l45.98,62.26,47.44-33.04,18.64-83.86-33.04-105.04-96.26-57.24Z" fill="#000" opacity=".24" stroke-width="0"/><path d="M1218.8,1128.52s-21.03,86.75,86.26,11.08c107.29-75.67,279.86-59.8,266.55-167.29l51.95,46.01-45.18,79.49-195.89,80.19-86.46,65.54s-52.46,30.46-68.02,12.39c-15.56-18.07-50.57-46.31-50.57-46.31l41.36-81.1Z" fill="#000" opacity=".24" stroke-width="0"/></g><path d="M1645.15,902.81c-.34.35-.69.68-1.03,1.03,9.41-19.23,15.76-43.29,15.76-73.25,0-76.23-48.4-140.44-139.97-185.68-72.56-35.85-170.1-58.81-275.7-65.02l.32-21.66.27-18.72c20.41,1.57,73.22,6.46,118.81,17.64l5.59-22.81c-48.91-12-104.06-16.89-124.06-18.37l.29-20.02.28-19.39c106.79,7.42,206.53,33.16,282.01,72.92,93.34,49.17,147.57,116.63,161.21,200.52,10.01,61.58-4.72,112.99-43.78,152.82Z" fill="url(#j)" stroke-width="0"/><path d="M1645.15,902.81c-.34.35-.69.68-1.03,1.03,9.41-19.23,15.76-43.29,15.76-73.25,0-76.23-48.4-140.44-139.97-185.68-72.56-35.85-170.1-58.81-275.7-65.02l.32-21.66.27-18.72c20.41,1.57,73.22,6.46,118.81,17.64l5.59-22.81c-48.91-12-104.06-16.89-124.06-18.37l.29-20.02.28-19.39c106.79,7.42,206.53,33.16,282.01,72.92,93.34,49.17,147.57,116.63,161.21,200.52,10.01,61.58-4.72,112.99-43.78,152.82Z" fill="#85c2e2" stroke-width="0"/><g clip-path="url(#k)"><path d="M1611.57,710.91s29.07,39.86,50.39,31.24c21.32-8.62-9.74-86.27-9.74-86.27l162.21,154.06-68.89,179.91-98.26-17.54s-49.69-32.62-50.82-36.01c-1.13-3.39,15.12-225.39,15.12-225.39Z" fill="#000" opacity=".24" stroke-width="0"/><rect x="1225.79" y="444.09" width="86.12" height="250.74" fill="#000" opacity=".24" stroke-width="0"/></g><path d="M1398.29,564.08c39.09,2.83,67.34,4.83,67.34,4.83-21.24-16.4-59.74-27.13-61.59-27.6l-5.75,22.77Z" fill="#fff" stroke-width="0"/><path d="M1394.31,708.35c-27.07-13.65-69.1-13.66-71-13.49l2.03,23.4c30.22-6.4,68.97-9.91,68.97-9.91Z" fill="#fff" stroke-width="0"/><path d="M941.15,731.64l.86-23.34c-28.03-.1-45.11-1.93-45.11-1.93,7.27,16.86,42.52,25.12,44.25,25.27Z" fill="#fff" stroke-width="0"/><path d="M830.92,652.51l-15.67-17.49c-1.25,1.12-33.13,31.61-39.46,59.27,17.01-22.43,54.84-41.52,55.13-41.78Z" fill="#fff" stroke-width="0"/><rect x="1323.96" y="865.74" width="44.41" height="23.48" transform="translate(-28.14 44.77) rotate(-1.89)" fill="#fff" stroke-width="0"/><path d="M1047.42,809.45l-.3-23.48c-55.47.72-94.19-3.27-94.57-3.31l-2.46,23.36c1.49.16,34.1,3.52,83.32,3.52,4.53,0,9.21-.03,14.01-.09Z" fill="#fff" stroke-width="0"/><path d="M1071.86,898.59c135.2-5.56,209.66-7.28,210.39-7.3l-.4-23.48c-.74.01-75.49,1.32-211.03,7.32-10.21.45-21.99.47-34.61.17v23.57c11.34.29,23.22.23,35.64-.29Z" fill="#fff" stroke-width="0"/><path d="M1003.83,874.01c-62.68-3.35-130.55-11.21-130.82-11.33,0,0,46.14,26.67,130.82,34.32v-22.99Z" fill="#fff" stroke-width="0"/><path d="M1297.83,776.46c-12.18.95-24.77,1.83-37.43,2.64v22.95c13.26-.72,26.48-1.45,39.26-2.18,83.15-4.76,131.94-10.79,196.66-2.5-45.54-34.26-110.91-27.75-198.49-20.92Z" fill="#fff" stroke-width="0"/><path d="M1102.56,786.47l.69,23.47c.79-.02,59.22-2.75,124.76-6.17v-22.74c-65.67,3.65-124.66,5.42-125.45,5.44Z" fill="#fff" stroke-width="0"/><path d="M883.36,954.77c7.38,8.52,50.01,28.94,145.01,35.09v-21.79c-95.78-2.38-145.01-13.29-145.01-13.29Z" fill="#fff" stroke-width="0"/><path d="M1213.66,963.65c-28.22,1.33-57.39,2.71-88.53,3.81-23.08.81-44.53,1.12-64.37,1.06v22.8c19.82.52,41.51.45,65.2-.39,31.28-1.1,60.53-2.48,88.81-3.81,146.34-6.9,240.14-6.12,262.18,36.54-5.88-46.68-41.18-56.3-75.31-60.71-46.16-5.97-108.75-3.02-187.98.72Z" fill="#fff" stroke-width="0"/><polygon points="1150.93 463.24 1149.49 595.44 1089.49 595.44 1092.64 463.24 1150.93 463.24" fill="#f7c745" stroke-width="0"/><polygon points="1150.93 463.24 1149.49 595.44 1089.49 595.44 1092.64 463.24 1150.93 463.24" fill="#85c2e2" stroke-width="0"/><rect x="1085" y="457.59" width="69.94" height="48.71" fill="#000" stroke="#fff" stroke-miterlimit="10" stroke-width="18"/><rect x="1085" y="544.56" width="69.94" height="48.71" fill="#000" stroke="#fff" stroke-miterlimit="10" stroke-width="18"/><rect x="1085" y="631.53" width="69.94" height="48.71" fill="#000" stroke="#fff" stroke-miterlimit="10" stroke-width="18"/><rect x="1198.85" y="561.69" width="8" height="147.54" fill="#fff" stroke-width="0"/><rect x="1198.85" y="481.38" width="8" height="55.39" fill="#fff" stroke-width="0"/><rect x="1046.6" y="561.69" width="8" height="157.31" fill="#fff" stroke-width="0"/><rect x="1046.6" y="481.38" width="8" height="55.39" fill="#fff" stroke-width="0"/><path d="M727.46,596.19c-37.66,0-72.93-18.28-99.32-51.49-25.91-32.59-40.18-75.81-40.18-121.69s14.27-89.09,40.18-121.69c26.39-33.2,61.66-51.49,99.32-51.49s72.93,18.28,99.32,51.49c25.91,32.59,40.18,75.81,40.18,121.69s-14.27,89.09-40.18,121.69c-26.39,33.2-61.66,51.49-99.32,51.49Z" fill="#fff" stroke-width="0"/><path d="M727.46,258.84c72.07,0,130.5,73.5,130.5,164.17s-58.43,164.17-130.5,164.17-130.5-73.5-130.5-164.17,58.43-164.17,130.5-164.17M727.46,240.84c-20.6,0-40.53,5.05-59.25,15.01-17.73,9.44-33.59,22.85-47.12,39.87-27.17,34.18-42.13,79.39-42.13,127.29s14.96,93.11,42.13,127.29c13.53,17.02,29.38,30.44,47.12,39.87,18.72,9.96,38.65,15.01,59.25,15.01s40.53-5.05,59.25-15.01c17.73-9.44,33.59-22.85,47.12-39.87,27.17-34.18,42.13-79.39,42.13-127.29s-14.96-93.11-42.13-127.29c-13.53-17.02-29.38-30.44-47.12-39.87-18.72-9.96-38.65-15.01-59.25-15.01h0Z" fill="#000" stroke-width="0"/><ellipse cx="727.46" cy="423.02" rx="101.81" ry="128.08" fill="url(#l)" stroke-width="0"/><ellipse cx="727.66" cy="423.02" rx="63.46" ry="87.38" fill="#000" stroke="#000" stroke-miterlimit="10" stroke-width="12"/><path d="M581.91,269.32c28.09-46.43,82.74-77.94,145.55-77.94s117.46,31.5,145.55,77.94" fill="none" stroke="#92c0df" stroke-linecap="round" stroke-miterlimit="10" stroke-width="36"/><circle cx="680.78" cy="377.52" r="34.09" fill="#fff" stroke-width="0"/><circle cx="739.39" cy="407.91" r="15.11" fill="#fff" stroke-width="0"/><path d="M1621.99,596.19c-37.66,0-72.93-18.28-99.32-51.49-25.91-32.59-40.18-75.81-40.18-121.69s14.27-89.09,40.18-121.69c26.39-33.2,61.66-51.49,99.32-51.49s72.93,18.28,99.32,51.49c25.91,32.59,40.18,75.81,40.18,121.69s-14.27,89.09-40.18,121.69c-26.39,33.2-61.66,51.49-99.32,51.49Z" fill="#fff" stroke-width="0"/><path d="M1621.99,258.84c72.07,0,130.5,73.5,130.5,164.17s-58.43,164.17-130.5,164.17-130.5-73.5-130.5-164.17,58.43-164.17,130.5-164.17M1621.99,240.84c-20.6,0-40.53,5.05-59.25,15.01-17.73,9.44-33.59,22.85-47.12,39.87-27.17,34.18-42.13,79.39-42.13,127.29s14.96,93.11,42.13,127.29c13.53,17.02,29.38,30.44,47.12,39.87,18.72,9.96,38.65,15.01,59.25,15.01s40.53-5.05,59.25-15.01c17.73-9.44,33.59-22.85,47.12-39.87,27.17-34.18,42.13-79.39,42.13-127.29s-14.96-93.11-42.13-127.29c-13.53-17.02-29.38-30.44-47.12-39.87-18.72-9.96-38.65-15.01-59.25-15.01h0Z" fill="#000" stroke-width="0"/><ellipse cx="1621.99" cy="423.02" rx="101.81" ry="128.08" fill="url(#m)" stroke-width="0"/><ellipse cx="1622.2" cy="423.02" rx="63.46" ry="87.38" fill="#000" stroke="#000" stroke-miterlimit="10" stroke-width="12"/><path d="M1476.44,269.32c28.09-46.43,82.74-77.94,145.55-77.94s117.46,31.5,145.55,77.94" fill="none" stroke="#92c0df" stroke-linecap="round" stroke-miterlimit="10" stroke-width="36"/><circle cx="1575.31" cy="377.52" r="34.09" fill="#fff" stroke-width="0"/><circle cx="1633.92" cy="407.91" r="15.11" fill="#fff" stroke-width="0"/></svg>